HIERARCHY
ROOT Hips
{
	OFFSET	0.00	0.00	0.00
	CHANNELS 6 Xposition Yposition Zposition Zrotation Xrotation Yrotation
	JOINT LeftUpLeg
	{
		OFFSET	 0.126116	-0.065224	 0.014019
		CHANNELS 3 Zrotation Xrotation Yrotation
		JOINT LeftLeg
		{
			OFFSET	 0.000000	 0.569914	 0.000000
			CHANNELS 3 Zrotation Xrotation Yrotation
			JOINT LeftFoot
			{
				OFFSET	 0.000000	 0.544423	 0.000000
				CHANNELS 3 Zrotation Xrotation Yrotation
				JOINT LeftToeBase
				{
					OFFSET	 0.000000	 0.207117	 0.000000
					CHANNELS 3 Zrotation Xrotation Yrotation
					End Site
					{
						OFFSET	 0.000000	 0.207117	 0.000000
					}
				}
			}
		}
	}
	JOINT RightUpLeg
	{
		OFFSET	-0.124023	-0.065224	 0.008373
		CHANNELS 3 Zrotation Xrotation Yrotation
		JOINT RightLeg
		{
			OFFSET	 0.000000	 0.570047	 0.000000
			CHANNELS 3 Zrotation Xrotation Yrotation
			JOINT RightFoot
			{
				OFFSET	 0.000000	 0.544354	 0.000000
				CHANNELS 3 Zrotation Xrotation Yrotation
				JOINT RightToeBase
				{
					OFFSET	 0.000000	 0.207540	 0.000000
					CHANNELS 3 Zrotation Xrotation Yrotation
					End Site
					{
						OFFSET	 0.000000	 0.207540	 0.000000
					}
				}
			}
		}
	}
	JOINT Spine
	{
		OFFSET	 0.000184	 0.117403	 0.007763
		CHANNELS 3 Zrotation Xrotation Yrotation
		JOINT Spine1
		{
			OFFSET	 0.000000	 0.137269	 0.000000
			CHANNELS 3 Zrotation Xrotation Yrotation
			JOINT Spine2
			{
				OFFSET	 0.000000	 0.156879	 0.000000
				CHANNELS 3 Zrotation Xrotation Yrotation
				JOINT LeftShoulder
				{
					OFFSET	 0.080501	 0.160143	 0.002496
					CHANNELS 3 Zrotation Xrotation Yrotation
					JOINT LeftArm
					{
						OFFSET	 0.000000	 0.164363	 0.000000
						CHANNELS 3 Zrotation Xrotation Yrotation
						JOINT LeftForeArm
						{
							OFFSET	 0.000000	 0.364576	 0.000000
							CHANNELS 3 Zrotation Xrotation Yrotation
							JOINT LeftHand
							{
								OFFSET	 0.000000	 0.360812	 0.000000
								CHANNELS 3 Zrotation Xrotation Yrotation
								JOINT LeftHandIndex1
								{
									OFFSET	 0.000000	 0.086006	 0.000000
									CHANNELS 3 Zrotation Xrotation Yrotation
									JOINT LeftHandIndex2
									{
										OFFSET	 0.000000	 0.047237	 0.000000
										CHANNELS 3 Zrotation Xrotation Yrotation
										JOINT LeftHandIndex3
										{
											OFFSET	-0.004284	 0.038165	 0.000551
											CHANNELS 3 Zrotation Xrotation Yrotation
											End Site
											{
												OFFSET	-0.004284	 0.038165	 0.000551
											}
										}
									}
								}
							}
						}
					}
				}
				JOINT Neck
				{
					OFFSET	 0.000000	 0.176489	 0.000000
					CHANNELS 3 Zrotation Xrotation Yrotation
					JOINT Head
					{
						OFFSET	 0.000000	 0.077941	 0.001747
						CHANNELS 3 Zrotation Xrotation Yrotation
						End Site
						{
							OFFSET	 0.000000	 0.077941	 0.001747
						}
					}
				}
				JOINT RightShoulder
				{
					OFFSET	-0.080363	 0.159706	-0.000306
					CHANNELS 3 Zrotation Xrotation Yrotation
					JOINT RightArm
					{
						OFFSET	 0.000000	 0.164196	 0.000000
						CHANNELS 3 Zrotation Xrotation Yrotation
						JOINT RightForeArm
						{
							OFFSET	 0.000000	 0.365611	 0.000000
							CHANNELS 3 Zrotation Xrotation Yrotation
							JOINT RightHand
							{
								OFFSET	 0.000000	 0.360648	 0.000000
								CHANNELS 3 Zrotation Xrotation Yrotation
								JOINT RightHandIndex1
								{
									OFFSET	 0.000000	 0.069977	 0.000000
									CHANNELS 3 Zrotation Xrotation Yrotation
									JOINT RightHandIndex2
									{
										OFFSET	 0.000000	 0.052305	 0.000000
										CHANNELS 3 Zrotation Xrotation Yrotation
										JOINT RightHandIndex3
										{
											OFFSET	 0.009002	 0.042196	 0.000782
											CHANNELS 3 Zrotation Xrotation Yrotation
											End Site
											{
												OFFSET	 0.009002	 0.042196	 0.000782
											}
										}
									}
								}
							}
						}
					}
				}
			}
		}
	}
}
MOTION
Frames:    5
Frame Time: 0.03333334
-0.047971	 1.234767	-1.246492	-2.375748	 1.318968	-174.266000	 176.057200	 8.576429	-16.642730	 4.483912	-30.533140	 6.157762	 9.424982	 81.134090	-2.031266	 1.512287	 31.240310	-2.811662	 168.159200	 27.152240	 21.010780	-5.697338	-52.858410	 6.387902	 4.113315	 69.747380	-3.471283	-1.668530	 33.137300	 2.886185	-1.506086	 9.022159	-12.701070	 4.814364	 2.335031	-5.832818	-4.983412	-2.088781	 14.283730	-121.358900	 7.423542	 94.035510	 19.134330	 42.448560	-3.691854	 14.729460	-0.753766	 0.013594	-18.444110	-35.848630	-33.882540	 4.624177	 18.856530	-1.654968	-5.863953	 21.470840	 2.373669	 5.331528	 4.340008	-0.169039	-0.168371	-5.009586	-0.144698	-2.160469	-2.530997	 0.640604	 118.423900	-0.013291	-90.826350	-5.040221	 50.064970	-1.571997	-4.932308	-0.193777	 0.050229	-19.155320	-4.878490	-46.687020	-2.438165	 25.992480	 1.336381	 15.855080	 44.981340	-11.843920	-8.529009	 23.990480	-1.227679
-0.047558	 1.232350	-1.271427	-2.448003	 0.881494	-173.865900	 176.121700	 7.906343	-16.454190	 4.548205	-30.890570	 6.574133	 12.814230	 82.108020	-5.726023	 1.539408	 31.576760	-2.824485	 166.829700	 30.301730	 22.961100	-5.654606	-52.651190	 6.788557	 6.663876	 73.503860	-5.495672	-1.680347	 33.278410	 2.892107	-0.983519	 8.483169	-16.198540	 4.771423	 3.291041	-5.955000	-4.911142	-3.521623	 14.091280	-121.350400	 7.760299	 94.202770	 17.050920	 41.608060	-1.552665	 21.342880	-1.008493	-2.065027	-23.274940	-42.494070	-37.076410	 4.667706	 18.999210	-1.678212	-5.863579	 21.596190	 2.387508	 5.336910	 4.466091	-0.166752	-0.174528	-5.038221	-0.116373	-2.063661	-2.830656	 0.586866	 118.377200	-0.211933	-90.733160	-1.926743	 49.917740	-3.461893	-6.359506	-0.196008	 2.228985	-22.975020	-7.770016	-46.847250	-2.281440	 24.819090	 1.253324	 15.564700	 43.836000	-11.392960	-8.532825	 22.812660	-1.149454
-0.046636	 1.227679	-1.318703	-2.547992	 0.303900	-173.356400	 176.267200	 5.982329	-16.088110	 4.528421	-30.780930	 7.061082	 19.321430	 83.766880	-12.928500	 1.574691	 32.011010	-2.841382	 164.998100	 35.296900	 25.499350	-5.190276	-50.266600	 7.700400	 8.848567	 75.545460	-7.749826	-1.695653	 33.460520	 2.899816	-0.412007	 7.783621	-20.587290	 4.680327	 4.595827	-6.118976	-4.760922	-5.286459	 13.642610	-121.340900	 8.194992	 94.418750	 17.276580	 39.616540	-1.078670	 28.188810	-1.239335	-4.727111	-30.043150	-50.046970	-41.321030	 4.724032	 19.183330	-1.708412	-5.863144	 21.757970	 2.405385	 5.343851	 4.628818	-0.163817	-0.182454	-5.075184	-0.079817	-1.937629	-3.180100	 0.467165	 118.317400	-0.468405	-90.613140	 3.181703	 49.190870	-6.837267	-8.206112	-0.199085	 5.029293	-28.487350	-11.244400	-46.657670	-2.083908	 23.303620	 1.152357	 15.215730	 42.354710	-10.834600	-8.535153	 21.291750	-1.049525
-0.045215	 1.221358	-1.381047	-2.666753	-0.350442	-172.794900	 176.456400	 2.857525	-15.550540	 4.320697	-29.613730	 7.511495	 31.351310	 85.382680	-25.948840	 1.614230	 32.492980	-2.860604	 163.711400	 39.482950	 27.702200	-4.025219	-43.031110	 9.313165	 9.776162	 74.902980	-9.467165	-1.712713	 33.662660	 2.908460	 0.083107	 7.007537	-25.262750	 4.550742	 5.987192	-6.278616	-4.552843	-7.102694	 12.950570	-121.332300	 8.677507	 94.658680	 20.740760	 36.694250	-2.786053	 31.947760	-1.308356	-7.720116	-36.510280	-57.439970	-46.516870	 4.786746	 19.387660	-1.742196	-5.862725	 21.937540	 2.425250	 5.351547	 4.809435	-0.160581	-0.191224	-5.116216	-0.039247	-1.796607	-3.532994	 0.286658	 118.251700	-0.753205	-90.480260	 9.168869	 47.782050	-10.927160	-10.226300	-0.201957	 8.105197	-34.545510	-14.828180	-46.005340	-1.870488	 21.620800	 1.048134	 14.859880	 40.707470	-10.243460	-8.534412	 19.603260	-0.939813
-0.043299	 1.214194	-1.448388	-2.812423	-1.087401	-172.167100	 176.658900	-0.862054	-14.880150	 3.950535	-27.464590	 7.958237	 50.054810	 86.286430	-45.785000	 1.658827	 33.030770	-2.882642	 164.339200	 40.191510	 28.463810	-2.414291	-29.258390	 11.469970	 11.827500	 72.633300	-12.533490	-1.731840	 33.888200	 2.918215	 0.454094	 6.150643	-30.138020	 4.369272	 7.270320	-6.359181	-4.293047	-8.920468	 11.958210	-121.325100	 9.215934	 94.926690	 25.987300	 33.340870	-5.133361	 31.931360	-1.199367	-11.108400	-41.945720	-65.020020	-53.906470	 4.856966	 19.615610	-1.780223	-5.862336	 22.137910	 2.447443	 5.360125	 5.010968	-0.156999	-0.200976	-5.162007	 0.006017	-1.638045	-3.898995	 0.033363	 118.179100	-1.071187	-90.332310	 14.794240	 45.952790	-14.678380	-12.409710	-0.203612	 11.473390	-39.991170	-18.580520	-44.893280	-1.639009	 19.743080	 0.941075	 14.498600	 38.866760	-9.615993	-8.529590	 17.719610	-0.818672
